<?xml version="1.0" standalone="no"?>
<!DOCTYPE svg PUBLIC "-//W3C//DTD SVG 20010904//EN"
 "http://www.w3.org/TR/2001/REC-SVG-20010904/DTD/svg10.dtd">
<svg version="1.0" xmlns="http://www.w3.org/2000/svg"
 width="288.000000pt" height="288.000000pt" viewBox="0 0 288.000000 288.000000"
 preserveAspectRatio="xMidYMid meet">

<g transform="translate(0.000000,288.000000) scale(0.100000,-0.100000)"
fill="#2F82C4" stroke="none">
<path d="M0 1440 l0 -1440 1440 0 1440 0 0 1440 0 1440 -1440 0 -1440 0 0
-1440z m1865 1029 c70 -58 81 -76 61 -98 -23 -25 -20 -46 9 -69 20 -16 25 -29
25 -64 0 -50 22 -88 52 -88 16 0 19 -5 16 -23 l-5 -24 38 19 c58 28 134 42
158 29 29 -16 37 -14 71 19 34 34 70 40 71 13 0 -10 0 -58 -1 -108 0 -78 -4
-98 -30 -151 -27 -55 -36 -65 -88 -90 -31 -16 -59 -30 -61 -32 -3 -1 15 -23
39 -47 51 -52 112 -85 158 -85 42 0 50 -20 24 -62 -32 -50 -82 -95 -135 -118
l-48 -21 19 -27 c49 -69 36 -124 -52 -220 -32 -34 -55 -65 -52 -70 3 -5 23
-17 46 -27 64 -29 43 -75 -35 -75 -12 0 -45 -7 -73 -16 -51 -17 -51 -17 -82 9
-42 36 -102 50 -169 42 -73 -9 -106 -27 -119 -65 -7 -19 -18 -30 -30 -30 -11
0 -30 -9 -43 -19 -22 -18 -26 -18 -41 -4 -39 35 -228 20 -228 -18 0 -6 -6 -6
-19 1 -25 13 -77 13 -102 -1 -16 -8 -29 -7 -54 5 -53 25 -97 20 -153 -18 -45
-30 -52 -32 -73 -20 -13 7 -34 13 -46 14 -13 0 -23 5 -23 10 0 6 4 10 10 10 5
0 16 14 25 30 15 29 15 30 -5 30 -12 0 -30 -4 -40 -10 -13 -7 -27 -5 -49 6
-30 15 -31 18 -31 79 0 34 7 79 15 98 l15 36 -101 -3 -102 -3 7 114 c4 62 13
131 21 152 l14 40 -32 10 c-70 24 -157 99 -157 137 0 7 17 15 38 19 75 14 122
59 236 225 32 47 74 101 93 121 l34 36 -21 35 c-41 70 -36 192 8 170 49 -25
144 -34 288 -27 279 14 372 11 443 -13 35 -12 66 -20 68 -18 2 2 12 36 23 75
19 67 68 178 92 209 16 19 30 15 83 -29z m203 -127 c2 -7 -5 -16 -17 -19 -17
-4 -21 -14 -23 -72 -2 -51 -6 -66 -18 -66 -12 0 -16 15 -18 68 -3 58 -5 67
-22 67 -22 0 -34 15 -25 30 10 16 117 8 123 -8z m82 -23 c0 -4 5 -20 10 -35
l11 -27 22 44 c42 84 81 51 75 -65 -2 -46 -7 -61 -18 -61 -11 0 -16 15 -20 55
l-5 55 -19 -43 c-24 -53 -50 -56 -67 -7 -15 40 -33 27 -24 -16 8 -35 -19 -59
-34 -30 -14 26 -2 138 17 157 13 13 17 13 33 -2 11 -9 19 -21 19 -25z m-248
-1299 c11 0 33 -13 49 -29 59 -60 26 -152 -71 -196 -37 -17 -40 -21 -38 -53 4
-44 -23 -66 -48 -40 -18 18 -33 123 -33 240 -1 62 1 68 22 73 44 9 72 12 85 9
8 -2 23 -4 34 -4z m500 -40 c108 -30 104 -176 -7 -230 -40 -19 -44 -24 -39
-50 5 -22 1 -31 -14 -39 -25 -13 -47 5 -56 46 -9 43 -24 247 -19 256 15 25 78
33 135 17z m-203 -46 c31 -35 41 -55 41 -81 0 -104 -127 -174 -193 -107 -72
72 -19 234 76 234 29 0 42 -8 76 -46z m-1379 -56 l0 -61 26 27 c41 40 91 31
117 -22 18 -35 27 -118 18 -162 -6 -29 -11 -35 -31 -35 -24 0 -25 4 -31 78 -4
43 -11 83 -17 89 -14 14 -41 -40 -56 -115 -13 -62 -31 -85 -59 -74 -18 7 -24
43 -32 208 -5 100 -4 119 10 133 12 12 21 13 36 6 16 -9 19 -22 19 -72z m-163
32 c37 -22 56 -52 51 -83 -5 -35 -37 -33 -67 4 -19 23 -33 30 -45 26 -25 -10
-49 -75 -42 -116 8 -53 28 -66 99 -66 56 0 62 -2 65 -22 4 -29 -26 -44 -88
-45 -61 0 -112 29 -131 75 -32 75 -2 192 59 230 35 22 60 21 99 -3z m1058 -90
c-1 -144 -9 -176 -48 -200 -39 -24 -119 -27 -137 -5 -25 30 -8 50 49 55 50 5
55 8 62 33 6 23 5 26 -6 17 -25 -21 -68 -7 -92 29 -35 52 -58 138 -42 157 25
30 50 12 70 -50 29 -95 31 -94 83 37 13 31 20 38 38 35 22 -3 23 -6 23 -108z
m-247 78 c2 -9 -11 -38 -28 -65 l-30 -48 42 -37 c36 -32 41 -41 32 -55 -18
-28 -39 -26 -77 7 l-35 31 -24 -43 c-18 -33 -29 -43 -48 -43 -36 0 -36 26 -2
90 l30 55 -41 35 c-35 29 -40 37 -31 52 18 29 44 27 78 -6 l32 -31 24 41 c20
31 30 39 50 37 14 -2 26 -10 28 -20z m-277 -37 c38 -37 49 -55 49 -80 0 -104
-129 -176 -196 -110 -53 54 -37 179 30 220 46 28 64 24 117 -30z"/>
<path d="M1837 954 c-11 -11 -9 -104 3 -104 11 0 80 59 80 69 -1 25 -65 53
-83 35z"/>
<path d="M2334 904 c3 -9 6 -36 6 -60 l0 -45 30 16 c17 9 36 28 43 42 10 22 8
28 -12 44 -29 24 -76 26 -67 3z"/>
<path d="M2095 886 c-9 -14 -15 -39 -13 -58 2 -26 8 -34 26 -36 29 -4 62 24
62 52 0 27 -9 40 -37 55 -19 10 -24 8 -38 -13z"/>
<path d="M1095 818 c-17 -25 -20 -94 -4 -103 5 -4 23 -2 39 5 49 20 52 74 5
104 -23 15 -25 14 -40 -6z"/>
</g>
<style>
  svg { background:#fff }
</style>
</svg>
